<svg xmlns="http://www.w3.org/2000/svg" viewBox="0 0 1032 229">
<path fill="#fff" d="M24.7 222.4c1.2-.5 2.5 0 3.7-.4q1.2-.4 2.1.5t2 .2q1.4-1 3-1 1.4.1 2.6-.2a3 3 0 0 1 2.3.2q.7.4 1.3-.2 1.4-1.4 3.3-.4 1.4.8 2.8 1.3c.5.2.5.2 1.4-.7h5.4l1.8.3 5 1q.9 0 1.6.6c1.3 1 2.7.9 4 1.5q.7.1 1.3-.1 1-.3 2.1-.4l3.3-.1-1.3-1 1.6-.1 1 .1c1.9-.8 3.5 0 5.2.8l2 .7q.8.2 1.4.6l.5.2h.5c1.6-.6 3.4 0 5-1.2a4 4 0 0 1 3.9-.7q1.4.4 2.7-.3c1-.4 2-.2 3-.5q2.4-.7 5 .2c1 .5 2.3.4 3.4.6s1.8-5 2.9-5.7q.5-.2 1.2 0l3-.2 1.5-.2q1 .1 1.7-1 .4-.8 1.4-1.1c.9-.4 1.8-.5 2.2-1.8h2.7c2.1 0 4-1.5 6.1-1.8q1.4-.3 2.6-1v-.2c1.5-2.3 3.6-2 5.6-2.2q2.1-.2 3.6-2 1-1.6 2.6-1.6.4 0 .7-.2c1.6-1.7 3.6-1.5 5.5-1.6l3.4-.2q1.5.4 3 1.2c1.4.6 12-6.2 13.1-5.5 1.2.8 1.7-3.4 2.6-2.1q.7.6 1.7.5c1.3 0 2.8-3.4 4.1-3.6q1.8-.5 3.6.1c.8.3 2.8-3.8 3.8-3.8.3.2 2.1-1.5 2.6-2l.9.3c.5.2 1.5-2.6 2.4-2q1.4.4 2.6.3 1.5-.1 2.8-.4 1 0 1.6.3c1.3 1.2 2.7.8 4 .8.8 0 1.3-3.3 2-3.4h3.2a63 63 0 0 0 9.9-3.2c.1 0 3.1.3 3.9-1.2 1.7.6 3.6.7 5.1 2.2q.8.5 1.3 1.4 2.7 3.3 6.4 3.8l5.2.5h.7c1.2-1 2.4-1 3.7-1q.6-.3 1.2-.9l1-.7c.5.9.8 2 1.3 2.2 1 .6 2 1.3 3.2 1.2a4 4 0 0 1 2.6.4c1 .5 1.7-.3 2.6-.4 1.7-.2 3.2-1.6 5-1.4q.7-.1 1.4-.7 1-1 1.9-.4c1 .7 2 .4 3.1.5l2.6.1q1.6.2 2.9 1.3l2.3 1.4q1.4.8 2.8.2c.7-.3 1.3-.9 2.2-.7q.6-.2 1-1.3l.4-1.8q.3-1.8 2.3-1.4l-1 1.7q1.5 0 2.4-.3 1.3-.7 1.9.2l2.3-.6.8-.7 2.2-1.4q1-.3 2 0 1.1.2 1.4-1 3 .2 5.7-.5c2.6-.6 2.6-.6 5 .2l-.7-1.4h.8c1.3-.1 2.6-.2 3.6-1.4q.4-.4 1-.3c1.3 0 2.5-.4 3.6 0 1.3.5 2.2-.1 3.2-.3q1.7-.2 3.3.3c.3 0 .4.6.7.8q.8.7 1.8 1.1.8.4 1.1-.6.5-1.3 1.6-.7 1.5.6 3 0 .5 0 1 .3c.6.1 1.3.5 1.7.3 1.2-.7 3.2 8.7 4.3 9q1.4.6 2.4-.2 1.3-1 2.7-1.7.8-.2 1.8 0 1.8 0 3.3 1.4.4.3 1 .2c1.6-.3 3.4 3 4.8 2.7q.6-.2 1-.6.4-1.1 1.5-1 .4 0 .6-.5.4-.5.6-1.1l4.2 1q.3.2.5 0c1.3-1 2.8-.6 4.1-.8a7 7 0 0 1 4.2 1l2.4 1.5q1.4.8 2.7.6c1.6-.5 3 0 4.4.6q1.1.5 2.1 0l3.6-.3 1 .5h.8l-2-2.2c1.5.2 3 .5 4.4-.8q.8-.5 2.1-.6c.3-1.3 1.5-1.2 2.5-1.5 1-.2 2-.5 2.8.2l1.4-1q.7-.2 1.4.3 1 .7 2-.2.8-.7 1.4 0 1.4 1.4 3 .4c1.5-.7 3-1.5 4.7-1.4a2 2 0 0 0 2-1.1c.6-1 1.9-1 2.7-.3a6 6 0 0 0 4 1.6q.8.1 1.6.5.9.7 1.5-.5 1-1.5 2.6-.5l4.6 3c.6.5 1.6.3 2.5.3l1.6-.6q.9-.6 1.7.1.2.3.7.3l.7-.1.3.6.5-.2c3.8.4 8 5 11.8 5.5q4 .4 8.1.4 1.5.8 3 .7h1c.6.3 1.3.4 1.1 1.5 0 .3 1 0 1.2-.3 1 .3 1.6 1.2 2.9.8l2-1.7c2.2.5 2 .8 4 1.6 3.2 1.4 7.8 5 9.4 4.4l9.2-2.9a21 21 0 0 0 11.6 1.8c3.2-.5 6.4-.7 9.5-1.8.5-.2 1.3.2 2 .2 1.3 0 3.1.1 3.8-.5q2-1.9 4-.3c1.6-1.1 2.8-2.4 4.4-3 2.3-1.1 4.5-2.8 7.7-1q4.6 2.1 9.3-.8c2.5-1.4 4.7-3.4 8-3.5 4.5-.2 8.9-.9 13.3-.6 3.4.1 6.8.7 10.2.2l1.6.3h2q2 0 4-.4c1.2-.1 2.7 0 3.4-.7 3.4-2.9 8-3.5 12.3-4.7q4.3-1.2 8.7-1.5c4.2-.3 8.7-1.3 12.5 1l2.6-1q6.5 4 14 1.6 7-2 13 1.3c2 1 3.5 1.6 5.6.6 1.6-.8 2.7-.2 3.3 1 1.6 3.1 4.7 3.5 8.4 3 2.2-.3 4.6-1.1 6.6 0 2.6 1.4 5.5 1.1 8 .7s5.5-.8 7.5-2.8c.5-.5 1.9-.7 2.8-.6 1.3.1 0 .8 1.2 1.3 1.9.8 1.4.8 3.3 1.7 1.2.5 3.8-2.4 4.9-3.4 1-1 4.7 1.7 4 .6-.2-.4.6-.6-.5-1.3 1.5 0 .8 0 1.4.1.7.2 1.3.8 2 .8 2.8.1 5.6.4 8.3-.8q1.6-.3 3.2-.2c1 0 2.3.5 3 .1 3-1.6 5.5-.6 7.3 1q3.5 2.8 7.8 3.7c1.2.4 2 .4 3.2 0 2.2-.9 4.4-3.2 6.7-3.5 1.6-.2 3.1-.2 4.5-1 1.4-.7 2.9-1.2 4.4.3q1.8-1.6 3.6-2.8 1.2-.8 2.6-.9c2.4-.1 4.6-1.5 7-1.5.6.3 1.1-1.5 1.8-1l2.6 1.5q1.2.8 2.7 1.2l1.7-.2q4.5-.2 9 1.2 3.9 1.5 8.1 1.4c4.1-.4 8.4 4.3 12.4 2.6h.7c2.8.6 5.4-2.9 8.2-3.4.7 0 1.7-.1 2.2.2 2 1.2 4.1 5.6 5.7 4.5a8 8 0 0 1 7-1c3.5 1.1 7.6 9.4 11 8.2 2.4-.7 4.8-1.4 7.4-1.2.9 0 2 1 2.8.5 1.6-1 3.6 3 5.6 3.2 3 .1 13.6 4.1 15.4 4.9q3.1 1.3 6.6 1l4.8.1c2.7.2 6 7.4 8.3 5.5q.7-.5 2-.5c1.4-.3 20 2 22.1.8l2.7-1.8c1.1-.4 7-.3 8.8 0 1.6.4 3.6.6 4.7 1.4 1.6 1.2 3 1.1 4.6.7l1.4-.2c4.7.7 9.3-.4 13.9-1.1q1.9-.2 2.4-1.7c1-2.1 4.1-3.7 6.5-2.8 1.7.6 3.3.4 4.9.9a7 7 0 0 0 5.6-1q2.4-1.5 4.8-1 6 .6 11.8-.8c.8-.2 2-.2 2.5.2 1.1 1 2.5.7 3.8.8h3l6.2 1.6q2.2.4 3.8-.8c1.4-1 3-2 4.9-.8.2.2 1 .1 1.2 0 2.5-1.8 4.4-.3 6.1.7 3.2 1.9 3.5 2 6.8.2q1.5-.9 3.2-.9l-7.6-88L18.6 152z"/>
<path fill="#e3e3e3" d="M26.4 208.4q.8 1.2 2.4.8c1.5-.5 2.7 0 4 .7q2.8 1 5.5 1.4l5.9 1h1.3q1.7-1 3.5-1 .8-.2 1.5-.6c2.4 1 4.8 2 7.5 2.1 1.3 0 2.6.6 4 .8l5.2.6c1.2 0 2.3.2 3.5-.5.8-.4 2-.2 3-.3q1.9-.1 3.6-.6a25 25 0 0 1 10-1.3q1.2 0 2.3-.2 2.7-.6 5.2-.1 2.3.3 3.9-1 .9-1 2.2-.7l4.2.2c.6.1 1-5.2 1.5-5.5a6 6 0 0 1 4.6 0q1.3.4 2.2-.6 1.4-1.5 3.7-1.4.7 0 1.5-.4 1.2-.5 2.4-.5 3.7-.1 7.3-1 1.7-.3 3.3-1 2.1-1 4.5-1c1.4.1 2.8-.4 4.2-.7 2.5-.4 5-1.1 7.6-.2q1 .2 2-.1l5.4-1.4c.9 0 1.5-4 2.3-3.5q1 .5 2.1.2c3.4-.2 6.6-2.7 10-1.8q1.3.4 2.6 0c2-.7 3.2-8 5-7.4a4 4 0 0 0 3.2 0c.8-.4 1.2-4.9 2-5 1.1 0 2-2 3.1-2h.8c2.8 1.5 5.8.4 8.7 1q.7.2 1.4 0c2.7-.7 5-4.7 7.8-5 1.3-.2 2.5-1 3.9-1.3 1.7-.4 5.6-2.1 7.4-2.5l2.8-.3c.5 0 .5.1 1 .3l1.7.7c2.2 1 2.4-3.6 4.6-3.8q1.3-.2 2.6.3 3.3 2 7 .5 1-.2 2.2.1l4.4.8.6.1c1.6 1 3.5.4 5.1.7q3 .6 6 1.7c1.2.4 2.3 1 3.6.4h.8a5 5 0 0 0 3.4-1.8h.6q1.8 1.6 4.2.9 1.1-.3 1.9.2c.9.9 2 1 3 1.2 1.7.3 3.3 1.2 5.1.8h1.2c3-1.3 6.1-.4 9.2-.2q1.7.3 2.6 1.4.6 1 1.7.7c1.7-.6 3.1.2 4.5.8a5 5 0 0 0 2.4.5l4.9.5 2.6-.1c2.4-.5 4.4-4 6.6-3 1.4.6 3 3.8 4 2.9a5 5 0 0 1 2.6-1.4l2.5-.8q.7-.3 1.6-.4l5 .5h1.6q2.2-.4 4.3.6c1.2.7 3 .4 4.4.4l3.7-.1h1q5.2-1 10-2.8l.6-.5c.7-1.3 1.8-1 3-.9l5.1.6.5-1.5c1.8.3 3.3-.4 4.8-1q1.4-.6 3.3-.6c1 0 2-.4 3 .2h.4c1.7-.4 3.4 0 5 0q2.7 0 5.1.6 1.2.2 2.4 0l6.6-.7 1.3-2.7c1.1 1.7 2.6 2.2 4 3q2 1 3.4 2.9 1.4 2 3.8 1.7h.4c2.4.4 4.6-.4 6.7-1.4q1-.5 2.3-.2t2.4-.3q2.7-1.2 5.5-.1.8.5 1.7.5c2.5-.4 4.6.5 6.8 1.7q2.6 1.4 5.7 1.8c2 .2 4 .7 6.1.5 1.5-.1 3.1 1 4.6 1.4 1.8.6 3.4 1.2 4.5 2.7q.4.5.9.5c1.6 0 3.1.6 4.8.2l1.8.2q1 .2 2-.1 2.2-1.3 4.3-.2c1.5.7 3 .5 4.5.5q2.6 0 3.5 2 .8 1.5 2.8 1.4 4.8 0 8.9 2.4.5.3 1.1.3c1.7-.3 3.5 0 5.1-.9l1.2-.2q2.6 0 4.4-2 1.3-1.5 3.4-.6l1.3.5q1 .7 2.3.1c1.3-.7 3-.6 4-1.9h1.1c3.2-.3 5.1 1.4 6.4 4 .5 1 5.2.9 5 .1l4.2-.1q1.8.2 3.3-1c.8-.7 1.7-.3 2.5 0q2 1 4 .2 4-1 8-.5.8 0 1.4-.2c2-1.7 4.3-1.3 6.6-.8l3.4.3q.4 0 .7-.3l3.4-2.1q.5-.2 1.2-.2 2.8.2 5.5-1 .5-.3 1-.1l5.8 1.2q1.4.4 2.8 0 .7-.3 1.5-.3l2.8-.1q1.6-.4 2.7.6 1.2 1.4 2.7.2a6 6 0 0 1 4-1.2l2.2-.2c1.9-.2 3.7-.8 5.5 0q.6.2 1.2-.3 2.1-1.7 4.6-.5l4 1.3c1.1.5 1.4-.5 1.8-.8l3.2-.4c.7 0 1.5.4 2.2.3 2.5-.6 4.8.4 7.2.7 2.3.3 4.6.4 6.8 1.1q1.5.8 3.4 1.3c2 .2 3.7.6 5.7 0 1.7-.6 3.6-.3 5.6-.7-.4-.2.1-1 .8-1 .6 0 1.3.4 1.6.1 2-1.3 4-.1 5.8.4q2.2.4 4.3 1.2l1.9.7 1.1.2c1.5-1.1 3.2 0 4.8-.8q2.2-1 4.5-1.8.9-.3 1.7-.2c2.3.4 4.5.5 6.6-.7h1.2l4.2-.6 2.6.1 7.4 1c1.2 0 2.5-.5 3.8-.7l1.7-.1 4.7-.4 1.8-.2q1.5.2 2.3-1.3.5-1 1.7-1.3c1.4-.3 2.7-.8 3.3-2.3l4-.1c3-.1 5.6-1.8 8.6-2.1 1.2-1.3 3.4-.9 4.3-2.7q.4-.6 1.2-.7c2-.3 3.9-1 6-1q2.8-.1 4.9-2.6 1.4-1.9 3.8-2 .7 0 1.2-.6a6 6 0 0 1 3.8-1.4l5.9-.2h1c2.1-1 3.8.3 5.6 1 1.8.5 3.5 1 5.2-.2.5-.3 1.4 0 2.5 0 0 0 .3-.6.6-.8q1.2-.6 2.2-.5a4 4 0 0 0 2.8-.1q1.5-.6 2.8.2l4.9 2.5 2.6 2q1 .8 2.1 1 2-.1 4-.5c1.7-.3 3.7 2.4 5.3 2l.9.1c1.5 1 3.1.4 4.6 0q2.8 2 4-.2l1 .1q1.5 1.1 2.5-.6c1-1.5 2.5-.8 3.5-.3q2.2.7 4.2.2l3.8-.5c.5 0 1.4 2.3 2 2.6 2.6 1.6 5.7 4 8.5 3.4 1.8-.4 4.2 7.3 6 7.8 1 .2 2.1-.1 3 0q3.4.8 6.4 2 2.6 1.5 4.8-.1l.6-.3c2.2 1.2 3.2 2.4 5 .3 2.5.7 5.6 5.2 7.7 7l1.6 1.4c2.4 2.8 6 9.2 9.5 9.6l7.1.4 1.6-.3c1.2-.4 2.6 1.4 3.9 1.2 1-.1 2-.2 2.7-1.1.3-.5 1.9.2 2.2.5.3.6 1.1 5.6 1.6 5.9q2.5 1.4 5.4 1h1.2q2 1.2 4 .2c1.5-.8 3.3-.6 4.7-1.6q.3-.3.8-.3c1.8 0 3.5-.2 5-1.5.4-.3 1.3-.4 1.7-.1 1.7 1 3.4.4 5.1.4l3.1.2q2.3.2 4.1 1.5l3 1.4q2 1 4.1.2c1-.4 2.1-.4 3-.8q.9-.6 1.5-1.6l.7-2.1c.5-1.6 2.3-.7 1.7.3 1.6-.4 3 0 4.1-.7q.6-.3 1-.2c2.1 1.2 3.7-.2 5.4-1 2.1-1.2 4.2-2.6 7-1.7l.8-1.5q3.3.4 6.4-.5l3.4-1c1-.3 2.3.3 3.5.5.4 0 .8-.7.4-1.3l1-.1q3 .6 5.2-1.5.7-.5 1.7-.5l5-.1.8.1q1.2.8 2.3 0c2-1.2 3.9-.4 5.8-.4q.6.1 1 .7c.8 1.5 2.1 1.7 3.7 1.6l1-1.8 2 .2 1.5.3c1.8-.1 3.6-.6 5.4.3h.8c1.9-1 3.6-.4 5.3.2q1.7.4 3-.5 1.8-1.2 3.8-2.1 1.1-.5 2.5-.2 2.1.3 3.9 1.1L1013.2 0 13 86.2l10.4 120.5q1.9-.2 3.2 1.7"/>
<path fill="#bac7d3" d="m22.2 193.8 21-1.8 1.7 20.4.6-.1.3-.2-1.7-20.2 30.2-2.5 2 23.7 1-.2-2-23.5 30.2-2.5 1.4 17.2 1-.2-1.5-17.1 30.2-2.5 1.2 14 .9-.3-1.2-13.8 30.2-2.5.8 9h1l-.8-9 12.9-1.1.2-1-13.2 1.1-2.5-30.2 30.2-2.5 2.3 28.2 1-.7-2.4-27.6 30.2-2.5 1.8 20.8 1 .4-1.8-21.3 30.2-2.5 2.1 26.2.7-.7h.2l-2.1-25.6 30.2-2.5 2.5 30.2-7.4.6 1.8.2q.9 0 1.5.5l4.2-.3.1 1.7 1 .2-.2-2 30.2-2.5.3 3.6h1l-.3-3.7 30.2-2.5.2 3.1 1 .1-.3-3.3 30.2-2.5.3 4.2 1-.1-.4-4.2 30.2-2.5.8 8.7.9-.2-.7-8.5 30.2-2.6 1.5 18.4 1 .6-1.6-19 30.2-2.5 2.3 27.9 1 .3-2.4-28.3 30.2-2.5 2.4 28.1 1 .8-2.4-29 30.2-2.5 2.5 30.2-29.3 2.4.6 1 28.8-2.5v1.2l1-.5-.1-.7 12.4-1 .6-.5 1.2-.2q2.7.2 5.3-.9l-19.6 1.6-2.5-30.2 30.2-2.5 2.5 30.2-9 .8 3.3.6 5.8-.4v.7h1v-.8l30.1-2.5.3 3 .7-.8h.2l-.2-2.3 30.2-2.5.6 7.4h1l-.7-7.5 30.2-2.5.7 8.7h1l-.7-8.8 30.2-2.5.8 9.7.9-.2-.8-9.5 30.2-2.5v.7l1-.1v-.7l4.5-.4 1.3-1-6 .4-2.5-30.2 30.2-2.5 2.4 29h1l-2.4-29 30.2-2.5 2.5 30.2-14.1 1.1 1.5.8 12.7-1 .4 5.5h1l-.5-5.6 30.2-2.5 1 12 1 .5-1-12.6 30.1-2.5 2.3 26.6 1 1-2.3-27.7 30.2-2.5 2.5 30.2-28.2 2.4.8.8 27.5-2.2 1.2 14.7 1 .4-1.3-15.2 30.2-2.5 1.8 22h1l-2-22 30.2-2.5 1.8 21.4 1-.5-1.8-21 30.2-2.5 1.4 16.6h.9l-1.4-16.7 30.2-2.5 1.7 20 1 .2-1.7-20.3 13.6-1.1v-1l-13.7 1.2-2.5-30.2 13.5-1.1v-1l-13.6 1.2-2.5-30.2 13.4-1.1v-1l-13.5 1.1-2.5-30.2 13.4-1-.1-1-13.4 1.1-2.5-30.2 13.3-1-.1-1-13.3 1-2.5-30.1 13.2-1.1-.1-1-13.2 1.2-1.3-16.6-1 .1 1.4 16.5-30.2 2.5L969 3.7l-.9.1 1.4 16.4-30.2 2.5-1.4-16.3-1 .1 1.4 16.3-30.2 2.5-1.3-16.2h-1l1.4 16.3-30.2 2.5-1.3-16.1h-1l1.4 16.2-30.2 2.5-1.4-16h-.9l1.3 16-30.2 2.6-1.3-16-1 .2 1.4 15.8-30.2 2.6-1.3-15.8h-1l1.3 15.8-30.2 2.5-1.3-15.7-.9.1 1.3 15.7-30.2 2.5-1.3-15.6-1 .1 1.4 15.6-30.2 2.5-1.3-15.5-1 .1 1.3 15.5L659 46l-1.2-15.4-1 .1 1.3 15.4-30.2 2.5-1.3-15.3h-1l1.4 15.4-30.3 2.5-1.2-15.2h-1l1.3 15.3-30.2 2.5-1.2-15.1h-1l1.3 15.1-30.2 2.6-1.3-15h-1l1.3 15-30.2 2.5-1.2-14.8h-1l1.3 15-30.2 2.4-1.2-14.8-1 .1 1.3 14.8-30.2 2.5-1.3-14.7-.9.1 1.2 14.7-30.2 2.5-1.2-14.6-1 .1 1.3 14.6-30.2 2.5-1.2-14.5h-1l1.2 14.6-30.2 2.5-1.2-14.4h-.9l1.2 14.4-30.2 2.6-1.2-14.3h-1l1.3 14.3-30.2 2.5-1.2-14.1h-1l1.2 14.2-30.2 2.5-1.1-14h-1l1.2 14.1-30.2 2.5-1.2-14-1 .1 1.3 14-30.2 2.5-1.2-13.9-1 .1 1.2 14-30.2 2.5-1.1-13.8-1 .1 1.2 13.8-30.2 2.5-1.2-13.7h-.9l1.1 13.7-30.2 2.6-1-13.6h-1l1 13.6-30.1 2.5-1.1-13.4h-1l1.2 13.5-30.3 2.5-1-13.3h-1l1.1 13.4L14 99.6v1l21.4-1.9 2.5 30.2-21.2 1.8v1l21.3-1.8 2.5 30.2-21.1 1.7v1l21.2-1.8 2.5 30.2-21 1.7zm53-5.4-2.5-30.2 30.2-2.5 2.5 30.2zm58.7-36.2-30.2 2.5-2.5-30.2 30.2-2.5zm-1.5-30.3 30.2-2.5 2.5 30.2-30.2 2.5zm-29.6 32.9-30.2 2.5-2.5-30.2 30.2-2.5zm3.5 31-2.5-30.1 30.2-2.5 2.5 30.1zm61.4-5-30.2 2.5L135 153l30.2-2.5zm-1.7-31.2-2.5-30.2 30.2-2.5 2.5 30.2zm31.1-2.6-2.5-30.2 30.2-2.5 2.6 30.2zm31.2-2.6-2.5-30.2 30.2-2.5 2.5 30.2zm31.1-2.6-2.5-30.2 30.2-2.5 2.5 30.2zm28.7-32.8 30.2-2.5 2.5 30.2-30.2 2.5zm563-15.3 30.2-2.5 2.5 30.2-30.2 2.5zm1.5 30.3-30.2 2.5-2.5-30.2 30.2-2.5zm29.6-32.9 30.2-2.5 2.5 30.2-30.2 2.5zm31.1-2.5 30.2-2.5 2.5 30.2-30.2 2.5zm32.8 28.6 2.5 30.2-30.2 2.5-2.5-30.2zm1 0 30.2-2.6 2.5 30.2-30.2 2.5zm-.1-1L944.5 86l30.2-2.5 2.5 30.2zM944.4 85l-2.5-30.2 30.2-2.5 2.5 30.2zm-1 0-30.1 2.5-2.6-30.2L941 55zm-31 2.6L882 90.2 879.6 60l30.2-2.5zm-31.2 2.6L851 92.8l-2.5-30.2 30.2-2.5zM850 92.9l-30.3 2.5-2.5-30.2 30.2-2.5zm-31.2 2.5L788.7 98l-2.5-30.2 30.2-2.5zm-31 2.6-30.2 2.5-2.5-30.2 30.2-2.5zm-31.2 2.6-30.2 2.5L724 73l30.2-2.5zm-123.5 11.2 30.2-2.5 2.5 30.2-30.2 2.5zm1.6 30.3-30.2 2.5-2.5-30.2 30.2-2.5zm29.6-32.9 30.2-2.5L697 137l-30.2 2.5zm31-2.6 30.3-2.5 2.5 30.2-30.2 2.5zm30.2-3.4-30.2 2.5-2.5-30.2L723 73zm-31.1 2.6-30.2 2.5-2.5-30.2 30.2-2.5zm-31.2 2.6-30.2 2.5-2.5-30.2 30.2-2.5zm-31 2.5-30.3 2.5-2.5-30.2 30.2-2.5zm-31.2 2.6-30.2 2.5-2.5-30.2 30.2-2.5zm-31.2 2.6-30.2 2.5-2.5-30.2 30.2-2.5zm-31.1 2.6-30.2 2.5L506 91l30.2-2.5zm-31.1 2.6-30.2 2.5-2.5-30.2L505 91zm-31.2 2.5-30.2 2.5-2.5-30.2 30.2-2.5zm-31.1 2.6-30.2 2.5-2.5-30.2 30.2-2.5zm-31.1 2.6-30.2 2.5-2.5-30.2 30.2-2.5zm-31.2 2.6-30.2 2.5-2.5-30.2 30.2-2.5zm-31.1 2.6-30.2 2.5-2.5-30.2 30.2-2.5zM293 170.4l-2.5-30.2 30.2-2.5 2.5 30.2zm31.2-2.6-2.5-30.2L352 135l2.5 30.2zm31.1-2.6-2.5-30.2 30.2-2.5 2.5 30.2zm31.1-2.6-2.5-30.2 30.2-2.5 2.5 30.2zm31.2-2.6-2.5-30.1 30.2-2.6 2.5 30.2zm31.1-2.5-2.5-30.2 30.2-2.5L479 155zm31.1-2.6-2.5-30.2 30.2-2.5 2.6 30.2zm31.2-2.6-2.5-30.2 30.2-2.5 2.5 30.2zm31.1-2.6-2.5-30.2L570 117l2.5 30.2zm28.6-32.7 30.3-2.5 2.5 30.1-30.2 2.6zm5.1 61.3-2.5-30.2 30.2-2.5 2.5 30.2zm31.2-2.6-2.5-30.2 30.2-2.5 2.5 30.2zm31.1-2.6-2.5-30.2 30.2-2.5 2.5 30.2zm31.1-2.6-2.5-30.2 30.2-2.5 2.5 30.2zm61.4-5-30.2 2.5-2.5-30.2 30.2-2.5zm-1.7-31.3-2.5-30.1 30.2-2.6 2.5 30.2zm31.2-2.5-2.5-30.2 30.2-2.5 2.5 30.2zm28.6-32.8 30.2-2.5 2.5 30.2-30.2 2.5zm5 61.3-2.4-30.2 30.2-2.5 2.5 30.2zm31.2-2.6-2.5-30.2 30.2-2.5 2.5 30.2zm31.2-2.5-2.6-30.2 30.3-2.5 2.5 30.1zm28.6-32.8 30.2-2.5 2.5 30.2-30.2 2.5zm5 61.3-2.4-30.2 30.2-2.5L920 181zM921 181l-2.5-30.2 30.2-2.5 2.5 30.2zm31.1-2.6-2.5-30.2 30.2-2.5 2.5 30.2zm61.4-5-30.2 2.5-2.5-30.2 30.2-2.5zm-2.6-31.2-30.2 2.5-2.5-30.2 30.2-2.5zm-2.6-31.1-30.2 2.5-2.5-30.2 30.2-2.5zm-2.6-31.1-30.2 2.5-2.5-30.2 30.2-2.5zm-5-61.3 2.5 30.1-30.2 2.6-2.6-30.2zm-31.2 2.5 2.5 30.2-30.2 2.5-2.5-30.2zm-31.1 2.6 2.5 30.2-30.2 2.5-2.5-30.2zm-31.2 2.6 2.5 30.2-30.2 2.5-2.5-30.2zM876.1 29l2.5 30.2-30.2 2.5-2.5-30.2zM845 31.6l2.5 30.1-30.2 2.6-2.5-30.2zM813.8 34l2.5 30.2-30.2 2.5-2.5-30.2zm-31.1 2.6 2.5 30.2-30.2 2.5-2.5-30.2zm-31.1 2.6 2.5 30.2-30.2 2.5-2.5-30.2zm-31.2 2.6L723 72l-30.2 2.5-2.5-30.2zm-31.1 2.6 2.5 30.2-30.2 2.5-2.5-30.2zM658.2 47l2.5 30.2-30.2 2.5-2.5-30.2zM627 49.6l2.5 30.2-30.2 2.5-2.5-30.2zm-31 2.6 2.5 30.2-30.2 2.5-2.5-30.2zm-31.1 2.6 2.5 30.2-30.2 2.5-2.5-30.2zm-31.2 2.6 2.5 30.2L506 90l-2.5-30.2zm-31.1 2.5 2.5 30.2-30.2 2.5-2.5-30.2zm-31.1 2.6 2.5 30.2-30.2 2.5L441 65zm-31.2 2.6 2.5 30.2-30.2 2.5-2.5-30.2zm-31.1 2.6 2.5 30.2-30.2 2.5-2.5-30.2zM378 70.3l2.5 30.2-30.2 2.5-2.5-30.2zm-31.1 2.5 2.5 30.2-30.2 2.5-2.5-30.2zm-31.1 2.6 2.5 30.2-30.2 2.5-2.5-30.2zM284.5 78l2.5 30.2-30.2 2.5-2.5-30.2zm-31.1 2.6 2.5 30.2-30.2 2.5-2.5-30.2zm-31.1 2.6 2.5 30.2-30.2 2.5-2.5-30.2zM191 85.7l2.5 30.2-30.2 2.5-2.5-30.2zm-31 2.6 2.5 30.2-30.2 2.5-2.5-30.2zM128.9 91l2.5 30.2-30.2 2.5-2.5-30.2zm-31.2 2.6 2.5 30.2-30.2 2.5L67.5 96zm-61.3 5 30.2-2.4 2.5 30.2-30.2 2.5zm2.6 31.2 30.2-2.5 2.5 30.2-30.2 2.5zm2.6 31.1 30.2-2.5 2.5 30.2L44 191z"/>
<path fill="#878787" fill-opacity=".2" d="M.9 98.2q1.7 1.8 3 4.7c2 5-5.6 8.8-3.5 13.8s3 4.6 5 9.5c2.1 5 7.2 3.5 9.2 8.5 1.3 3 1.8 4 3.2 4.8 0 0 35.6-13.5 78.7-31.2 41.6-17 81.7-35.1 81.7-35.1Q176 72 174 69.9c-3.4-4.2-7.6-3.7-9.6-8.7s2.4-7 .3-12c-2-5-9-4.5-11.1-9.5-.9-2-.1-4.3.7-6.3z"/>
<path fill="#ebe1c7" fill-opacity=".8" d="M.9 98.2q1.7 1.8 3 4.7c2 5-5.6 8.8-3.5 13.8s3 4.6 5 9.5c2.1 5 7.2 3.5 9.2 8.5 1.3 3 1.8 4 3.2 4.8l160.4-66.3Q176 72 174 69.9c-3.4-4.2-7.6-3.7-9.6-8.7s2.4-7 .3-12c-2-5-9-4.5-11.1-9.5-.9-2-.1-4.3.7-6.3z"/>
</svg>
